<?xml version="1.0" standalone="no"?><!DOCTYPE svg PUBLIC "-//W3C//DTD SVG 1.1//EN" "http://www.w3.org/Graphics/SVG/1.1/DTD/svg11.dtd"><svg t="1530862494776" class="icon" style="" viewBox="0 0 1024 1024" version="1.1" xmlns="http://www.w3.org/2000/svg" p-id="748" xmlns:xlink="http://www.w3.org/1999/xlink" width="48" height="48"><defs><style type="text/css"></style></defs><path d="M513.77646 861.799828c-6.160303 0-11.602246-4.052293-13.355169-9.979282-3.412726-11.540847-17.948791-36.652781-47.682999-69.442582-30.315446-33.431414-68.104097-65.49876-106.404402-90.294492-13.44215-8.699126-27.809369-17.257036-43.021839-26.317389-42.053792-25.049512-89.719394-53.44012-125.96183-91.211375-42.539862-44.333718-63.016219-94.684476-62.59871-153.929812 0.523933-74.803683 22.399149-138.428769 63.260789-183.996594 37.633109-41.966811 88.360444-65.078181 142.839219-65.078181 40.746006 0 80.786954 13.168927 115.794259 38.08234 30.384008 21.623483 56.506968 52.018747 76.565816 88.858794 19.631106-35.673477 45.567825-65.217351 76.05007-86.400812 35.346019-24.563442 75.831083-37.547151 117.076462-37.547151 54.44296 0 104.993263 22.382776 142.339846 63.025429 40.893362 44.502563 62.783928 107.250676 63.303768 181.462888 0.402159 57.028854-18.841114 105.547895-58.82885 148.32721-34.196847 36.583197-77.790714 63.377446-119.948883 89.289606-18.669198 11.475356-36.303834 22.313192-52.383044 33.56956-82.136695 57.504692-146.818857 135.070278-153.556305 161.140027-1.566682 6.061043-6.985088 10.332323-13.244652 10.440793C513.938142 861.798804 513.857301 861.799828 513.77646 861.799828zM320.851519 199.407586c-85.101213 0-177.178305 69.287039-178.243567 221.412762-0.817622 116.313076 92.568279 171.936931 174.960801 221.012649 15.439644 9.196453 30.023804 17.884322 43.902906 26.864858 51.614541 33.418111 89.342818 70.089311 111.903649 94.968955 16.960277 18.701944 30.791284 36.696784 40.414455 52.371788 27.381627-43.494607 89.096201-105.264439 151.054321-148.642388 16.760732-11.732206 34.739199-22.782889 53.772694-34.481326 81.756025-50.249451 166.295444-102.210893 165.507498-213.6868-1.041726-148.97394-92.889597-216.826304-177.786149-216.826304-75.813686 0-144.921647 51.092655-180.353624 133.337821-2.198062 5.103228-7.219425 8.410554-12.775978 8.417717-0.005117 0-0.011256 0-0.016373 0-5.550413 0-10.570753-3.295046-12.779048-8.388041C463.391932 250.383584 396.266116 199.407586 320.851519 199.407586z" p-id="749" fill="#d4237a"></path></svg>